# xmcd
#
# Track frame offsets:
#	150
#	16154
#	30888
#	47692
#	64156
#	101097
#	125205
#	137867
#	149514
#	173955
#
# Disc length: 2702 seconds
#
# Revision: 1
# Processed by: cddbd v1.5.2PL0 Copyright (c) Steve Scherf et al.
# Submitted via: audiograbber 1.83.01
#
DISCID=8e0a8c0a
DTITLE=Brother Dege - Folk Songs of the American Longhair
DYEAR=2010
DGENRE=Blues
TTITLE0=Hard Row to Hoe
TTITLE1=The Girl Who Wept Stones
TTITLE2=Too Old to Die Young
TTITLE3=To Fill a Hole
TTITLE4=House of the Dying Sun
TTITLE5=The Battle of New Orleans
TTITLE6=Dead and Gone
TTITLE7=The World's Longest Hotdog
TTITLE8=Old Angel Midnight
TTITLE9=Black is the Night
EXTD=
EXTT0=
EXTT1=
EXTT2=
EXTT3=
EXTT4=
EXTT5=
EXTT6=
EXTT7=
EXTT8=
EXTT9=
PLAYORDER=
